<mxfile host="app.diagrams.net" modified="2023-07-26T18:37:22.725Z" agent="Mozilla/5.0 (Windows NT 10.0; Win64; x64) AppleWebKit/537.36 (KHTML, like Gecko) Chrome/115.0.0.0 Safari/537.36" etag="ew03VpfkS-ziMGjZZTkj" version="21.6.5" type="device">
  <diagram id="nryoykXafIZrLnPXe6tl" name="Página-1">
    <mxGraphModel dx="1500" dy="693" grid="1" gridSize="10" guides="1" tooltips="1" connect="1" arrows="1" fold="1" page="1" pageScale="1" pageWidth="1169" pageHeight="1654" math="0" shadow="0">
      <root>
        <mxCell id="0" />
        <mxCell id="1" parent="0" />
        <mxCell id="Uh-nQiJknzr5KVAPy5kF-2" value="Construa a modelagem que represente pessoas e seus dados, observando que:&#xa;&#xa;&#xa;- uma pessoa pode ter vários telefones e vários emails, porém, pode possuir somente uma CNH." style="text;whiteSpace=wrap;" parent="1" vertex="1">
          <mxGeometry x="100" y="110" width="560" height="80" as="geometry" />
        </mxCell>
        <mxCell id="Uh-nQiJknzr5KVAPy5kF-10" style="edgeStyle=orthogonalEdgeStyle;rounded=0;orthogonalLoop=1;jettySize=auto;html=1;entryX=0.5;entryY=0;entryDx=0;entryDy=0;endArrow=none;endFill=0;" parent="1" source="Uh-nQiJknzr5KVAPy5kF-3" target="Uh-nQiJknzr5KVAPy5kF-4" edge="1">
          <mxGeometry relative="1" as="geometry" />
        </mxCell>
        <mxCell id="Uh-nQiJknzr5KVAPy5kF-13" style="edgeStyle=orthogonalEdgeStyle;rounded=0;orthogonalLoop=1;jettySize=auto;html=1;exitX=1;exitY=0.5;exitDx=0;exitDy=0;entryX=0;entryY=0.5;entryDx=0;entryDy=0;endArrow=none;endFill=0;" parent="1" source="Uh-nQiJknzr5KVAPy5kF-3" target="Uh-nQiJknzr5KVAPy5kF-8" edge="1">
          <mxGeometry relative="1" as="geometry" />
        </mxCell>
        <mxCell id="Uh-nQiJknzr5KVAPy5kF-14" style="edgeStyle=orthogonalEdgeStyle;rounded=0;orthogonalLoop=1;jettySize=auto;html=1;entryX=0;entryY=0.5;entryDx=0;entryDy=0;endArrow=none;endFill=0;" parent="1" source="Uh-nQiJknzr5KVAPy5kF-3" target="Uh-nQiJknzr5KVAPy5kF-9" edge="1">
          <mxGeometry relative="1" as="geometry" />
        </mxCell>
        <mxCell id="Uh-nQiJknzr5KVAPy5kF-3" value="pessoa" style="rounded=0;whiteSpace=wrap;html=1;" parent="1" vertex="1">
          <mxGeometry x="160" y="310" width="120" height="60" as="geometry" />
        </mxCell>
        <mxCell id="Uh-nQiJknzr5KVAPy5kF-11" style="edgeStyle=orthogonalEdgeStyle;rounded=0;orthogonalLoop=1;jettySize=auto;html=1;entryX=0.5;entryY=0;entryDx=0;entryDy=0;endArrow=none;endFill=0;" parent="1" source="Uh-nQiJknzr5KVAPy5kF-4" target="Uh-nQiJknzr5KVAPy5kF-5" edge="1">
          <mxGeometry relative="1" as="geometry" />
        </mxCell>
        <mxCell id="Uh-nQiJknzr5KVAPy5kF-12" style="edgeStyle=orthogonalEdgeStyle;rounded=0;orthogonalLoop=1;jettySize=auto;html=1;exitX=1;exitY=0.5;exitDx=0;exitDy=0;entryX=0.563;entryY=-0.063;entryDx=0;entryDy=0;entryPerimeter=0;endArrow=none;endFill=0;" parent="1" source="Uh-nQiJknzr5KVAPy5kF-4" target="Uh-nQiJknzr5KVAPy5kF-7" edge="1">
          <mxGeometry relative="1" as="geometry" />
        </mxCell>
        <mxCell id="Uh-nQiJknzr5KVAPy5kF-4" value="possui" style="rhombus;whiteSpace=wrap;html=1;" parent="1" vertex="1">
          <mxGeometry x="180" y="470" width="80" height="80" as="geometry" />
        </mxCell>
        <mxCell id="KV9EUIcl4eD3K0vQ6K5D-45" style="edgeStyle=orthogonalEdgeStyle;rounded=0;orthogonalLoop=1;jettySize=auto;html=1;entryX=0.5;entryY=0;entryDx=0;entryDy=0;endArrow=none;endFill=0;" edge="1" parent="1" source="Uh-nQiJknzr5KVAPy5kF-5" target="KV9EUIcl4eD3K0vQ6K5D-42">
          <mxGeometry relative="1" as="geometry" />
        </mxCell>
        <mxCell id="Uh-nQiJknzr5KVAPy5kF-5" value="telefone" style="rounded=0;whiteSpace=wrap;html=1;" parent="1" vertex="1">
          <mxGeometry x="40" y="700" width="120" height="60" as="geometry" />
        </mxCell>
        <mxCell id="KV9EUIcl4eD3K0vQ6K5D-46" style="edgeStyle=orthogonalEdgeStyle;rounded=0;orthogonalLoop=1;jettySize=auto;html=1;entryX=0.5;entryY=0;entryDx=0;entryDy=0;endArrow=none;endFill=0;" edge="1" parent="1" source="Uh-nQiJknzr5KVAPy5kF-7" target="KV9EUIcl4eD3K0vQ6K5D-43">
          <mxGeometry relative="1" as="geometry" />
        </mxCell>
        <mxCell id="Uh-nQiJknzr5KVAPy5kF-7" value="email" style="rounded=0;whiteSpace=wrap;html=1;" parent="1" vertex="1">
          <mxGeometry x="280" y="700" width="120" height="60" as="geometry" />
        </mxCell>
        <mxCell id="Uh-nQiJknzr5KVAPy5kF-8" value="CNH" style="ellipse;whiteSpace=wrap;html=1;" parent="1" vertex="1">
          <mxGeometry x="360" y="290" width="60" height="30" as="geometry" />
        </mxCell>
        <mxCell id="Uh-nQiJknzr5KVAPy5kF-9" value="Nome" style="ellipse;whiteSpace=wrap;html=1;" parent="1" vertex="1">
          <mxGeometry x="360" y="340" width="60" height="30" as="geometry" />
        </mxCell>
        <mxCell id="Uh-nQiJknzr5KVAPy5kF-15" value="1" style="text;html=1;align=center;verticalAlign=middle;resizable=0;points=[];autosize=1;strokeColor=none;fillColor=none;" parent="1" vertex="1">
          <mxGeometry x="220" y="370" width="30" height="30" as="geometry" />
        </mxCell>
        <mxCell id="Uh-nQiJknzr5KVAPy5kF-16" value="N" style="text;html=1;align=center;verticalAlign=middle;resizable=0;points=[];autosize=1;strokeColor=none;fillColor=none;" parent="1" vertex="1">
          <mxGeometry x="100" y="670" width="30" height="30" as="geometry" />
        </mxCell>
        <mxCell id="Uh-nQiJknzr5KVAPy5kF-17" value="N" style="text;html=1;align=center;verticalAlign=middle;resizable=0;points=[];autosize=1;strokeColor=none;fillColor=none;" parent="1" vertex="1">
          <mxGeometry x="350" y="670" width="30" height="30" as="geometry" />
        </mxCell>
        <mxCell id="KV9EUIcl4eD3K0vQ6K5D-1" value="Conceitual" style="text;html=1;align=center;verticalAlign=middle;resizable=0;points=[];autosize=1;strokeColor=#6c8ebf;fillColor=#dae8fc;" vertex="1" parent="1">
          <mxGeometry x="170" y="218" width="80" height="30" as="geometry" />
        </mxCell>
        <mxCell id="KV9EUIcl4eD3K0vQ6K5D-2" value="logico" style="text;html=1;align=center;verticalAlign=middle;resizable=0;points=[];autosize=1;strokeColor=#6c8ebf;fillColor=#dae8fc;" vertex="1" parent="1">
          <mxGeometry x="655" y="218" width="50" height="30" as="geometry" />
        </mxCell>
        <mxCell id="KV9EUIcl4eD3K0vQ6K5D-3" value="Pessoa" style="shape=table;startSize=30;container=1;collapsible=1;childLayout=tableLayout;fixedRows=1;rowLines=0;fontStyle=1;align=center;resizeLast=1;html=1;" vertex="1" parent="1">
          <mxGeometry x="610" y="300" width="180" height="120" as="geometry" />
        </mxCell>
        <mxCell id="KV9EUIcl4eD3K0vQ6K5D-4" value="" style="shape=tableRow;horizontal=0;startSize=0;swimlaneHead=0;swimlaneBody=0;fillColor=none;collapsible=0;dropTarget=0;points=[[0,0.5],[1,0.5]];portConstraint=eastwest;top=0;left=0;right=0;bottom=1;" vertex="1" parent="KV9EUIcl4eD3K0vQ6K5D-3">
          <mxGeometry y="30" width="180" height="30" as="geometry" />
        </mxCell>
        <mxCell id="KV9EUIcl4eD3K0vQ6K5D-5" value="PK" style="shape=partialRectangle;connectable=0;fillColor=none;top=0;left=0;bottom=0;right=0;fontStyle=1;overflow=hidden;whiteSpace=wrap;html=1;" vertex="1" parent="KV9EUIcl4eD3K0vQ6K5D-4">
          <mxGeometry width="30" height="30" as="geometry">
            <mxRectangle width="30" height="30" as="alternateBounds" />
          </mxGeometry>
        </mxCell>
        <mxCell id="KV9EUIcl4eD3K0vQ6K5D-6" value="IdPessoa" style="shape=partialRectangle;connectable=0;fillColor=none;top=0;left=0;bottom=0;right=0;align=left;spacingLeft=6;fontStyle=5;overflow=hidden;whiteSpace=wrap;html=1;" vertex="1" parent="KV9EUIcl4eD3K0vQ6K5D-4">
          <mxGeometry x="30" width="150" height="30" as="geometry">
            <mxRectangle width="150" height="30" as="alternateBounds" />
          </mxGeometry>
        </mxCell>
        <mxCell id="KV9EUIcl4eD3K0vQ6K5D-7" value="" style="shape=tableRow;horizontal=0;startSize=0;swimlaneHead=0;swimlaneBody=0;fillColor=none;collapsible=0;dropTarget=0;points=[[0,0.5],[1,0.5]];portConstraint=eastwest;top=0;left=0;right=0;bottom=0;" vertex="1" parent="KV9EUIcl4eD3K0vQ6K5D-3">
          <mxGeometry y="60" width="180" height="30" as="geometry" />
        </mxCell>
        <mxCell id="KV9EUIcl4eD3K0vQ6K5D-8" value="" style="shape=partialRectangle;connectable=0;fillColor=none;top=0;left=0;bottom=0;right=0;editable=1;overflow=hidden;whiteSpace=wrap;html=1;" vertex="1" parent="KV9EUIcl4eD3K0vQ6K5D-7">
          <mxGeometry width="30" height="30" as="geometry">
            <mxRectangle width="30" height="30" as="alternateBounds" />
          </mxGeometry>
        </mxCell>
        <mxCell id="KV9EUIcl4eD3K0vQ6K5D-9" value="Cnh" style="shape=partialRectangle;connectable=0;fillColor=none;top=0;left=0;bottom=0;right=0;align=left;spacingLeft=6;overflow=hidden;whiteSpace=wrap;html=1;" vertex="1" parent="KV9EUIcl4eD3K0vQ6K5D-7">
          <mxGeometry x="30" width="150" height="30" as="geometry">
            <mxRectangle width="150" height="30" as="alternateBounds" />
          </mxGeometry>
        </mxCell>
        <mxCell id="KV9EUIcl4eD3K0vQ6K5D-10" value="" style="shape=tableRow;horizontal=0;startSize=0;swimlaneHead=0;swimlaneBody=0;fillColor=none;collapsible=0;dropTarget=0;points=[[0,0.5],[1,0.5]];portConstraint=eastwest;top=0;left=0;right=0;bottom=0;" vertex="1" parent="KV9EUIcl4eD3K0vQ6K5D-3">
          <mxGeometry y="90" width="180" height="30" as="geometry" />
        </mxCell>
        <mxCell id="KV9EUIcl4eD3K0vQ6K5D-11" value="" style="shape=partialRectangle;connectable=0;fillColor=none;top=0;left=0;bottom=0;right=0;editable=1;overflow=hidden;whiteSpace=wrap;html=1;" vertex="1" parent="KV9EUIcl4eD3K0vQ6K5D-10">
          <mxGeometry width="30" height="30" as="geometry">
            <mxRectangle width="30" height="30" as="alternateBounds" />
          </mxGeometry>
        </mxCell>
        <mxCell id="KV9EUIcl4eD3K0vQ6K5D-12" value="Nome" style="shape=partialRectangle;connectable=0;fillColor=none;top=0;left=0;bottom=0;right=0;align=left;spacingLeft=6;overflow=hidden;whiteSpace=wrap;html=1;" vertex="1" parent="KV9EUIcl4eD3K0vQ6K5D-10">
          <mxGeometry x="30" width="150" height="30" as="geometry">
            <mxRectangle width="150" height="30" as="alternateBounds" />
          </mxGeometry>
        </mxCell>
        <mxCell id="KV9EUIcl4eD3K0vQ6K5D-16" value="Telefone" style="shape=table;startSize=30;container=1;collapsible=1;childLayout=tableLayout;fixedRows=1;rowLines=0;fontStyle=1;align=center;resizeLast=1;html=1;whiteSpace=wrap;" vertex="1" parent="1">
          <mxGeometry x="940" y="180" width="180" height="120" as="geometry" />
        </mxCell>
        <mxCell id="KV9EUIcl4eD3K0vQ6K5D-17" value="" style="shape=tableRow;horizontal=0;startSize=0;swimlaneHead=0;swimlaneBody=0;fillColor=none;collapsible=0;dropTarget=0;points=[[0,0.5],[1,0.5]];portConstraint=eastwest;top=0;left=0;right=0;bottom=0;html=1;" vertex="1" parent="KV9EUIcl4eD3K0vQ6K5D-16">
          <mxGeometry y="30" width="180" height="30" as="geometry" />
        </mxCell>
        <mxCell id="KV9EUIcl4eD3K0vQ6K5D-18" value="Pk" style="shape=partialRectangle;connectable=0;fillColor=none;top=0;left=0;bottom=0;right=0;fontStyle=1;overflow=hidden;html=1;whiteSpace=wrap;" vertex="1" parent="KV9EUIcl4eD3K0vQ6K5D-17">
          <mxGeometry width="60" height="30" as="geometry">
            <mxRectangle width="60" height="30" as="alternateBounds" />
          </mxGeometry>
        </mxCell>
        <mxCell id="KV9EUIcl4eD3K0vQ6K5D-19" value="IdTelefone" style="shape=partialRectangle;connectable=0;fillColor=none;top=0;left=0;bottom=0;right=0;align=left;spacingLeft=6;fontStyle=5;overflow=hidden;html=1;whiteSpace=wrap;" vertex="1" parent="KV9EUIcl4eD3K0vQ6K5D-17">
          <mxGeometry x="60" width="120" height="30" as="geometry">
            <mxRectangle width="120" height="30" as="alternateBounds" />
          </mxGeometry>
        </mxCell>
        <mxCell id="KV9EUIcl4eD3K0vQ6K5D-20" value="" style="shape=tableRow;horizontal=0;startSize=0;swimlaneHead=0;swimlaneBody=0;fillColor=none;collapsible=0;dropTarget=0;points=[[0,0.5],[1,0.5]];portConstraint=eastwest;top=0;left=0;right=0;bottom=1;html=1;" vertex="1" parent="KV9EUIcl4eD3K0vQ6K5D-16">
          <mxGeometry y="60" width="180" height="30" as="geometry" />
        </mxCell>
        <mxCell id="KV9EUIcl4eD3K0vQ6K5D-21" value="FK" style="shape=partialRectangle;connectable=0;fillColor=none;top=0;left=0;bottom=0;right=0;fontStyle=1;overflow=hidden;html=1;whiteSpace=wrap;" vertex="1" parent="KV9EUIcl4eD3K0vQ6K5D-20">
          <mxGeometry width="60" height="30" as="geometry">
            <mxRectangle width="60" height="30" as="alternateBounds" />
          </mxGeometry>
        </mxCell>
        <mxCell id="KV9EUIcl4eD3K0vQ6K5D-22" value="IdPessoa" style="shape=partialRectangle;connectable=0;fillColor=none;top=0;left=0;bottom=0;right=0;align=left;spacingLeft=6;fontStyle=5;overflow=hidden;html=1;whiteSpace=wrap;" vertex="1" parent="KV9EUIcl4eD3K0vQ6K5D-20">
          <mxGeometry x="60" width="120" height="30" as="geometry">
            <mxRectangle width="120" height="30" as="alternateBounds" />
          </mxGeometry>
        </mxCell>
        <mxCell id="KV9EUIcl4eD3K0vQ6K5D-23" value="" style="shape=tableRow;horizontal=0;startSize=0;swimlaneHead=0;swimlaneBody=0;fillColor=none;collapsible=0;dropTarget=0;points=[[0,0.5],[1,0.5]];portConstraint=eastwest;top=0;left=0;right=0;bottom=0;html=1;" vertex="1" parent="KV9EUIcl4eD3K0vQ6K5D-16">
          <mxGeometry y="90" width="180" height="30" as="geometry" />
        </mxCell>
        <mxCell id="KV9EUIcl4eD3K0vQ6K5D-24" value="" style="shape=partialRectangle;connectable=0;fillColor=none;top=0;left=0;bottom=0;right=0;editable=1;overflow=hidden;html=1;whiteSpace=wrap;" vertex="1" parent="KV9EUIcl4eD3K0vQ6K5D-23">
          <mxGeometry width="60" height="30" as="geometry">
            <mxRectangle width="60" height="30" as="alternateBounds" />
          </mxGeometry>
        </mxCell>
        <mxCell id="KV9EUIcl4eD3K0vQ6K5D-25" value="numero" style="shape=partialRectangle;connectable=0;fillColor=none;top=0;left=0;bottom=0;right=0;align=left;spacingLeft=6;overflow=hidden;html=1;whiteSpace=wrap;" vertex="1" parent="KV9EUIcl4eD3K0vQ6K5D-23">
          <mxGeometry x="60" width="120" height="30" as="geometry">
            <mxRectangle width="120" height="30" as="alternateBounds" />
          </mxGeometry>
        </mxCell>
        <mxCell id="KV9EUIcl4eD3K0vQ6K5D-29" value="Email" style="shape=table;startSize=30;container=1;collapsible=1;childLayout=tableLayout;fixedRows=1;rowLines=0;fontStyle=1;align=center;resizeLast=1;html=1;whiteSpace=wrap;" vertex="1" parent="1">
          <mxGeometry x="940" y="420" width="180" height="110" as="geometry" />
        </mxCell>
        <mxCell id="KV9EUIcl4eD3K0vQ6K5D-30" value="" style="shape=tableRow;horizontal=0;startSize=0;swimlaneHead=0;swimlaneBody=0;fillColor=none;collapsible=0;dropTarget=0;points=[[0,0.5],[1,0.5]];portConstraint=eastwest;top=0;left=0;right=0;bottom=0;html=1;" vertex="1" parent="KV9EUIcl4eD3K0vQ6K5D-29">
          <mxGeometry y="30" width="180" height="20" as="geometry" />
        </mxCell>
        <mxCell id="KV9EUIcl4eD3K0vQ6K5D-31" value="Pk" style="shape=partialRectangle;connectable=0;fillColor=none;top=0;left=0;bottom=0;right=0;fontStyle=1;overflow=hidden;html=1;whiteSpace=wrap;" vertex="1" parent="KV9EUIcl4eD3K0vQ6K5D-30">
          <mxGeometry width="60" height="20" as="geometry">
            <mxRectangle width="60" height="20" as="alternateBounds" />
          </mxGeometry>
        </mxCell>
        <mxCell id="KV9EUIcl4eD3K0vQ6K5D-32" value="IdEmail" style="shape=partialRectangle;connectable=0;fillColor=none;top=0;left=0;bottom=0;right=0;align=left;spacingLeft=6;fontStyle=5;overflow=hidden;html=1;whiteSpace=wrap;" vertex="1" parent="KV9EUIcl4eD3K0vQ6K5D-30">
          <mxGeometry x="60" width="120" height="20" as="geometry">
            <mxRectangle width="120" height="20" as="alternateBounds" />
          </mxGeometry>
        </mxCell>
        <mxCell id="KV9EUIcl4eD3K0vQ6K5D-33" value="" style="shape=tableRow;horizontal=0;startSize=0;swimlaneHead=0;swimlaneBody=0;fillColor=none;collapsible=0;dropTarget=0;points=[[0,0.5],[1,0.5]];portConstraint=eastwest;top=0;left=0;right=0;bottom=1;html=1;" vertex="1" parent="KV9EUIcl4eD3K0vQ6K5D-29">
          <mxGeometry y="50" width="180" height="30" as="geometry" />
        </mxCell>
        <mxCell id="KV9EUIcl4eD3K0vQ6K5D-34" value="FK" style="shape=partialRectangle;connectable=0;fillColor=none;top=0;left=0;bottom=0;right=0;fontStyle=1;overflow=hidden;html=1;whiteSpace=wrap;" vertex="1" parent="KV9EUIcl4eD3K0vQ6K5D-33">
          <mxGeometry width="60" height="30" as="geometry">
            <mxRectangle width="60" height="30" as="alternateBounds" />
          </mxGeometry>
        </mxCell>
        <mxCell id="KV9EUIcl4eD3K0vQ6K5D-35" value="IdPessoa" style="shape=partialRectangle;connectable=0;fillColor=none;top=0;left=0;bottom=0;right=0;align=left;spacingLeft=6;fontStyle=5;overflow=hidden;html=1;whiteSpace=wrap;" vertex="1" parent="KV9EUIcl4eD3K0vQ6K5D-33">
          <mxGeometry x="60" width="120" height="30" as="geometry">
            <mxRectangle width="120" height="30" as="alternateBounds" />
          </mxGeometry>
        </mxCell>
        <mxCell id="KV9EUIcl4eD3K0vQ6K5D-36" value="" style="shape=tableRow;horizontal=0;startSize=0;swimlaneHead=0;swimlaneBody=0;fillColor=none;collapsible=0;dropTarget=0;points=[[0,0.5],[1,0.5]];portConstraint=eastwest;top=0;left=0;right=0;bottom=0;html=1;" vertex="1" parent="KV9EUIcl4eD3K0vQ6K5D-29">
          <mxGeometry y="80" width="180" height="30" as="geometry" />
        </mxCell>
        <mxCell id="KV9EUIcl4eD3K0vQ6K5D-37" value="" style="shape=partialRectangle;connectable=0;fillColor=none;top=0;left=0;bottom=0;right=0;editable=1;overflow=hidden;html=1;whiteSpace=wrap;" vertex="1" parent="KV9EUIcl4eD3K0vQ6K5D-36">
          <mxGeometry width="60" height="30" as="geometry">
            <mxRectangle width="60" height="30" as="alternateBounds" />
          </mxGeometry>
        </mxCell>
        <mxCell id="KV9EUIcl4eD3K0vQ6K5D-38" value="nome" style="shape=partialRectangle;connectable=0;fillColor=none;top=0;left=0;bottom=0;right=0;align=left;spacingLeft=6;overflow=hidden;html=1;whiteSpace=wrap;" vertex="1" parent="KV9EUIcl4eD3K0vQ6K5D-36">
          <mxGeometry x="60" width="120" height="30" as="geometry">
            <mxRectangle width="120" height="30" as="alternateBounds" />
          </mxGeometry>
        </mxCell>
        <mxCell id="KV9EUIcl4eD3K0vQ6K5D-42" value="numero" style="ellipse;whiteSpace=wrap;html=1;" vertex="1" parent="1">
          <mxGeometry x="65" y="827" width="70" height="30" as="geometry" />
        </mxCell>
        <mxCell id="KV9EUIcl4eD3K0vQ6K5D-43" value="nome" style="ellipse;whiteSpace=wrap;html=1;" vertex="1" parent="1">
          <mxGeometry x="305" y="827" width="70" height="30" as="geometry" />
        </mxCell>
        <mxCell id="KV9EUIcl4eD3K0vQ6K5D-48" value="" style="edgeStyle=entityRelationEdgeStyle;fontSize=12;html=1;endArrow=ERoneToMany;rounded=0;exitX=1;exitY=0.5;exitDx=0;exitDy=0;entryX=0;entryY=0.5;entryDx=0;entryDy=0;" edge="1" parent="1" source="KV9EUIcl4eD3K0vQ6K5D-4" target="KV9EUIcl4eD3K0vQ6K5D-20">
          <mxGeometry width="100" height="100" relative="1" as="geometry">
            <mxPoint x="740" y="540" as="sourcePoint" />
            <mxPoint x="840" y="440" as="targetPoint" />
          </mxGeometry>
        </mxCell>
        <mxCell id="KV9EUIcl4eD3K0vQ6K5D-49" value="" style="edgeStyle=entityRelationEdgeStyle;fontSize=12;html=1;endArrow=ERoneToMany;rounded=0;exitX=1;exitY=0.5;exitDx=0;exitDy=0;entryX=0;entryY=0.5;entryDx=0;entryDy=0;" edge="1" parent="1" source="KV9EUIcl4eD3K0vQ6K5D-4" target="KV9EUIcl4eD3K0vQ6K5D-33">
          <mxGeometry width="100" height="100" relative="1" as="geometry">
            <mxPoint x="740" y="540" as="sourcePoint" />
            <mxPoint x="840" y="440" as="targetPoint" />
          </mxGeometry>
        </mxCell>
        <mxCell id="KV9EUIcl4eD3K0vQ6K5D-50" value="Fisico" style="text;html=1;align=center;verticalAlign=middle;resizable=0;points=[];autosize=1;strokeColor=#6c8ebf;fillColor=#dae8fc;" vertex="1" parent="1">
          <mxGeometry x="812.49" y="610" width="50" height="30" as="geometry" />
        </mxCell>
        <mxCell id="KV9EUIcl4eD3K0vQ6K5D-51" value="" style="shape=image;verticalLabelPosition=bottom;labelBackgroundColor=default;verticalAlign=top;aspect=fixed;imageAspect=0;image=data:image/png,iVBORw0KGgoAAAANSUhEUgAAAxgAAAFPCAYAAADOaWgCAAAAAXNSR0IArs4c6QAAAARnQU1BAACxjwv8YQUAAAAJcEhZcwAADsMAAA7DAcdvqGQAADbTSURBVHhe7d27cuJAl8Dxw77JboEDmyeAfLfgSxxN6tpEhFC1O5lDZ7O1BaHJJnXkqq2B2gcwT4AdjKh9Fba71QJJCNClhSX4/6o0A+h+dOsjdcutrSInfH5+ysPDg/2GvIhffsQMcINjqRziVw7xqxbxzYY4lVM0fv9k/wcAAACA0kgwAAAAADhDggEAAADAGRIMAAAAAM6QYAAAAABwhgQDAAAAgDMkGAAAAACcIcEAAAAA4AwJBgAAAABnSDAAAAAAOEOCAQAAAMAZEgwAAAAAzpBgAAAAAHCGBAMAAACAMyQYAAAAAJxprdfrrf2cqtvt2k8AgKZR53j7Cbgsyg/AdShyHWltFfs5VavVkjODAABqiPN3OZ+fn/Lw8GC/IS/2P6D5ih7HVJECAAAA4AwJBgAAAABnSDAAAAAAOEOCAQAAAMAZEgwAAAAAzpBgAAAA3LjlqCWt/kw29ntmm5n0W2pc3RUZH1eJBAO1tpn1g5NWtBstbV8AAG7VRmb9xPUx2VV+vVTL8DSRlbcwrzLdfoylbfvgtpFgoP56U/H1ict0C/HmQ+6SAABuXFvGH+G1UXULT/3Wk6kf+e11EAxaGV++Vmqu9x37HQiQYKBhBvJz2hNZvckfMgwAAIDaIcFA47TvuvZTxHIUfyycfMIRrSOquthT41P9tET/1GEUU381OhxVuQAAdXHuOpnm1Dim31Dm6uNq0jH9+7PIFDNcO811U/0Yqw6dtlxFlh3figQDjbP5u7afAubENBRZhI+Et75MZSKd3QloKaPORGTq7/rfv4zUr+f6Kfqkpvp3F+G0VbfwZD6Mn0j1SfLlPpyG6vyp9ObD1EQEAIBLOn+dPHR2nMGr+m0hpmKWvYZ+jG0LjIzXTkNdKztfz3Y4Nb3VRJ4iwxRZdtSA2lgnZRgEqIw/7W3VmWvr2+/qh21P7ZPiqVONsdiqk9t29zW08NS+29tOzYjBMOoEaHrFnernb6e96Lz21HlSTd9TYx9zfFzgUjh/l7Ner+0nFMH+d2Gx615Uluukva7trrfZxgmHi19Ds187zffEcMWWA1UpehzzBAP1t5pIJ3wsGj5tCBuubf6Kfp6h74rEHp8O9UPbUNBuI3iE25f4zZNT/YLGa97jYSO5waM65ak5/90Nn3ybR0cmalwAAL5VputkQpFxdvJcO88otRz4TiQYqL/YW6Qij2AjvOhj2F33IeGg7fGH+W3hrWTS0SeofTWoo/3sie24rtyZ6evkQiUUEl1OX1TeAgBALZy7TqYpMk72a2d2hZYD34oEA83WvlOnKpF1xtshg1d1UtLtI2Qu74n2EQf97LTnyQGV5ftcJT73Yl7Mt/kjb/puzTPv/wYA1EzO66RRZJxQ1mtnFmWWA9+KBAMNF1ZxeopXb9INzMIGYPpztLW1/yUrlUaY13af6he+EjfZWFuNo5/O7hKKlJPpckQVKQBAHWS4Th4oMk4o47UzkzLLge9EgoHG01Wc/KnY6k22e7kXP/yLooNXWchw30+d4byFfbR6qp9iqk8tgjdf7IdZmz9ktP/7RQN5tW+NCocZqqmq0QAA+HZnr5MpiowTynbtzKbMcuD7tLa6ItsJekOeGQQAUEOcv8v5/PyUh4cH+w15sf8BzVf0OOYJBgAAAABnSDAAAAAAOEOCAQAAAMAZEgwAAAAAzrTW6/XJlhvdrn4BJwCgidQ53n4CLovyA3AdilxHeItUxYhffsQMcINjqRzeIlUO+1+1iG82xKmcovGjihQAAAAAZ0gwAAAAADhDggEAAADAGRIMAAAAAM6QYAAAAABw5qIJxnLUklZ/Jhv7HcD1Mcf5aGm/AUAxVZUZCk93M5N+S42ruysoy1AmQ5XcJBjLkTrg+jLLuZduZv3gQI12FEzSmRjrGI3kMEJLGal+/bwbAEiKXkBtx34FwKncZYaNzPrx89JBV3nZQS3D00RW3sK8snP7MZa27VM7lMnKobzlxPdXkepNxdcHq+kW4s2HZNQpNn/DP3IylyFJGCpg7mZ1JtJdhMej7nz58dbhZArgG7Vl/BE5Ly089VtPpn7kt9dBMGhlfPlaqbned+z3K0WZjPKWIzVrgzGQn9OeyOpN/lCeSeHJVMdn/pL7zgRw0nIkw7naw1RyEb9OBxf2j3Ft79UBACpxy2UyyltlVZpgmDuiOR+zte+69lPE7nGV7ZLZdKJaR2xWp/ppKVVC0hY1ti66+6as9m78W6a9lUyeMtxRyLBuZr3Uj7FHo2F8o3FPu4NxbrugITYye1HZRW8qP8/cBDy5vyRkGQYAQkXKDKmKXJtOjWP6DUWdJWU16Zj+sae6Za+1URVeV4vE95bLZNnKW7b6XmL+ZvkicTm5/aPxLLBPhNPexSTaP2M8q1BZgqFXdDj3ZGEftfn3L+YO6Tn7R1MBszGGspuOrrIxlYl0dgFcyqgzEZn6u/73L2G9uVP9FL3RklVCFp7Mh/GTh16Xl/twGqrzp9KbDy+2keLaMn729FlOfp2af8Z1M9S6dL6e7XAL8dS0O3pHfH+M/fYUGe/8dkFzBI/+pXuXrU5xyv4S3TeMLMMAgFW0zJBU5Np0dpzBq/pNncfUx54tT+ye6pa81l7qukqZrIiM5a2sqixrqWkPJdE+KM++WQU1w5MyDKJi4qnhetupb79vF1u1SbbqQLTfA2q9turo3Ia/+tNe7Lv6YdtT4+l6GoFgOruvodj80ucVONXP30570XntmeUUT419zPFxkzLFLwMTq8gyxZcxuZ7Z1y25TbTzv2XZLsW5ihmyOnWcxJn9ILHhk/tLlmFwGRxL5azXa/sJRRzd/wqWGXaOXmuyXZvi0816PUtbxpzX2pPnxazLsec6vtdaJst7HnRR3krGNvldO/9blnjbcQ7iUyaecUWvI9U8wdj8FZ3zdu8y3A8NMzjdhZltWAncTkdnW9HHO61Y2h3UEQweWybfmnCqX3DX1ns8rBMyeFSbVM3572745BssOjLRd3y/0eCnythlLi+pWWiedSsg03ZB06y+fPsJAC4oT5nhlCLXplLXM4fX2iqvq3niS5nswOnyVoXy7BPeo4puVMXlwAxq9hap9MakKgHb9d93HxIO2h5/mN8W3komHb0B9o/cjvazG+64rgTHot6R1c4r0eX0RR0j36s9lt/mQH06bICUed3KObdd0BQdudf78/pv/JErADRQkWtToetZBdfab7+uUiY7dKq8dQF12TfzqibBaN+pRdfllZJbIud0Bq8q6Lounso03xP15Q762WnPkwMqy3eVHfbuVbFL2fyRN50FPtfvndft8bN4og7SX+/2FyvruhXlavuiJtryjx/q7OyqnikA5PFNZQajzLxdXmurvK5+U3yvqUx2tLylliKtHbwTZbZb1nhWqKInGAPRT2BWk1+7rDVoYGS/ZBY+TktkjbrhStjARX+Otuzxv9Qu0BPzqupT/ey0JdkwSI2jl3O386ZspOXo+6tIBQbyulCBns/VIRqVcd0Ky7Bd0Cht87YMvcukv/3kIg3CANyoC5YZDpS5nrm81lZ5XaVMVt6x8pZIR1cBiLzOtlhs09Rl3yymsipSg1f9yGouQ1tnTLf49/XK5qQfp6kk1z5Ks93LvfhhK/nBqyxkuO+nIuct7KOjU/0U86hO7TCx+m3DtUz96N8CUDuVzrLVRgqH0S319X5WC3od7bJE61dmW7fizm4XNEzw9y70MZqs76mPXf4OBoAqXazMkKLM9czltbbK6yplMgeOlrfs62xtTIrGNk1d9s0iWltdmesEvUBnBsEJxC8/Yga4wbFUzufnpzw8PNhvyIv9r1rENxviVE7R+H1/I28AAAAAV4MEAwAAAIAzJBgAAAAAnCHBAAAAAOBMa71en2y50e1W9YJfAEDV1DnefgIui/IDcB2KXEd4i1TFiF9+xAxwg2OpHN4iVQ77X7WIbzbEqZyi8aOKFAAAAABnSDAAAAAAOEOCAQAAAMAZEgwAAAAAzpBgAAAAAHCGBKOxNjLrt6TVn6lPgeUo5ftoab8BAAAA1Wt2grEcmddnNa4QvZlJXy93rBsJqQAuYTPrx/e9jMdPlvEyT7upxy6A68Q5qTxiuL8GRm72htxcQ5cyivZXXV3D3dAEw969H87t9+YwTxU6E+kutua9wmHnT9cyTNkhj2vL+EON+zFWn4Bs9MlL7X4y9cN9byHefHj2gpBlvGzTbu6xC+AacU4qjxgam5k8qWug5/XsD3turqE6zkORSPlx4YnMhzVNMtQCnpRhkIvzpz21XL3t1Pe3055sxVvYPvUTjd9+ue0PjqkdbSu96TacvPle49gcU8d97jostupctO0ldsBgv/RU32OyjJdt2k06dq8Bx1I56/XafkIRTdj/mnxOqkt86x7Dy8QpWHd9DTTxiJTFXF5DD/jTrUpnDsZzqWj8GvkEoz3+UGv7IeNG3brfyJ+3ldpPnjMst70bkEhJU9tYZHjqobPi3eO0tOHDx5pHhgnbcpj/I/3D31OnH51mgXmiApu/ov/Yf/cuvgO277rq37m8H7sDkmW8jNNu5rEL4FpxTiqPGOpy1pNMVp48pwXB4TW0SWjkfSmbP6Lzi959x/5wIfOhdL6edfqpuoV4q4k8zfZFeZMcmCdu4SM3X6YykU6ywK+mM5RFMEy0WlbK9Ds6YXh/jP1WaJ5wy/+SlfTkYBfs3KtfT8gyXtFpAwDQZKZq1Eq8xasM7E8xVV5DzXiHiUkdkGBcWHQniN35r+ouvqeSgtdwlx/Ioyeyevtj57OUXwcHRVvGz2Yg+RNbGE8Wu+lE9KbiJ6af9luxeQIAANTX8tdEVqqslVZEqtZSRrrdiypz/bz4vM8jwbiw9d99CTp4rBjcxdcNdS7OPpLTDYRiiU5aQy3vMZIQlJBnngAAAHW1HMlwfuQGbMWWo6HMpSfT3/V82Q8JxqW070TXpFt9+cH3GvESb7QKumrrU37HPG+eedS6koNd8Nij2VCW8YpOGwCAhlq+65ujcxlGbph2JitV2Auqi/d19fAKrqG6DexwrpILv77lJhKMixnIz2lP7YcvEmmOcERbTLueqtmkJ/pUpXLfMU8EjsR+89c0LZOjVTizjFd02gAANNTg9fBmqa/LerqquPr8oUv/jq+hQXKhb9TW+6YsCcYFtce/ZdpbyaSTfGfxRsw+FNG5jycj4Q7lVpD0rCZP8aRHv+GpsgbX3zFPBGx7mGjsbeO03vTnrgpc8LawfmT7ZBkv27QBALgt7q6huu1ukFxsv6HNR04q2zopwyAXF7wXWFK6U+/y/x56uQ4svMRyqy72zmTNvk/a9k97t3Lq370483cwksNoB/FM9E+bjpY2ray/nZqn/o7qmO0RiX3y/dlB/8O/13JuPO3cME06dq+Bji2K4+9glNOE/a/J5yS9nHVQ9xjqZbkkE49EmUcrfw0N/lZGtP++q+5vrOnpF9HS/6iRj9L1yc4MghOIX37EDHCDY6mcz89PeXh4sN+QF/tftYhvNsSpnKLxo4oUAAAAAGdIMAAAAAA4Q4IBAAAAwBkSDAAAAADOtPRbMuznVN2ufjMvAKCJ1DnefgIui/IDcB2KXEd4i1TFiF9+xAxwg2OpHN4iVQ77X7WIbzbEqZyi8aOKFAAAAABnSDAAAAAAOEOCAQAAAMAZEgwAAAAAzpBgAAAAAHCGBAMAAACAMw1NMJYyarXMq7PCbrS0va7UZtaPrW/Q9WW2sQMAGR3sSxkPnizjnR/m9o5dAHXGOak8YhjaXQP7M0kWz27tGtrABGMjs/5QZLE17+XV3cITmQ9vYYf21GpH13slkw5JBrLTJ6/ORGTqh/vRQrz58GySkWW888Pc8rELoH44J5VHDHc2M3lS10DP69kf9txcQ1V6MUqLdU3LgWoBT8owyPfzp1u1Obc9tVXqxlX8/GlPTcvbqgRjr8brXUYj9rlGWmzVuehgf0ndt2KyjFdw2le6D9cFx1I56/XafkIRjdz/GnROqm18axbDy8TJ3057wTqb615vqn4JNfsaWjR+tMG4At27tv2ks9vgkZr5Xz8+M4/p9B2G4PcoM0zkMV44rs6id4/fUh7z6Sy9H/a3XWLSqKPNX9F/7D+6v2jtu676dy7vx7ZhlvGKThsAgIbbzJ5ksvLkeRy/BhoXuIYmx6uD60gw/C9Zqf/qGOAqLX9N1Hp78jiwP4TmQxnKQqecsv0YS66oqHE7X8/BuPrx3GoiT9Fnb8uRtDoT6UYe0W0Xnnkc2qeuVr2Z46Qn9x37PdS5V7+ekGW8UtO+vWMXQE1xTirv1mJoqkap0tjiVZLFMaOya+hGZk+qHNibys/UGX+vK0gwljIazkVqGmC35jKMPDUIVvtnyg7tyeK1YDA8lZjsxh3Ioyeyevtjn2KonflFzVQNE5v84NXUA1xNfqmtAWR1S8cugPrjnFTe7cXQ3OxNlosqY2ukmHJgxzw1WeS9kXwhjU8wdIOXucrvpr/rGWC34o28t/5UZNI5rMbkPaZn0aX58rXSkz+c+kBnIrKWvzzEQEa3dewCqDvOSeXdXAyXIxnOS9zUza0t4499OdCfrs2N5zrWIGl0gqHbDAznakf2PySt2tvVa4/l97SnHzHIn0vsW7aO4HFd4alyjZlHrSv58u330LFHs6Es4+Wc9s0fuwBqhXNSebcYw+X7XP0br13Smax0lQ7phAX/Cq6hofb4t5hiYA1rkDQ2wQh2ZF1bh5PBeW0x7YTKat+pFEIdSimtjcxB1ruXY2VU1IDdfuvEY6bNX9O07HhymGW8HNPm2AVQJ5yTyrvVGA5eI7VKdk8VVIm/NxVfff7QwXB8DU1Vx/KXCsZJGQa5uOC1XbL1jr63qz5cxS/9VWXBa83UEW2/q1+8+PdQMH5vG77JzAynx428Si1tXPNbZJjU2C+8w99KcBUzHAq2+34/UBv04BV3B8MohcZLGaZJx+414Fgqh9fUltOE/a/J56S6xLfuMbx0nEw8Yq+pdXUN1WW+RDnQlr+i03GtaPzOjlWXHXjPFqpTu3ihqA70crkQHsAHXeKINjto6lEevKM5HE/vjMmDIG1c81viQAl36H3nNu56mqhOcBLbd8kT08FJzjo3nnZ6mGYdu9dAxxbFkWCUU//9r9nnJL2c36/+MdTLcklpCYZW/hqaXhasOrHT8yiipf9RIx+l65OdGQQnEL/8iBngBsdSOZ+fn/Lw8GC/IS/2v2oR32yIUzlF43cdfwcDAAAAQC2QYAAAAABwhgQDAAAAgDMkGAAAAACcaem3ZNjPqbpd/WZeAEATqXO8/QRcFuUH4DoUuY7wFqmKEb/8iBngBsdSObxFqhz2v2oR32yIUzlF40cVKQAAAADOkGAAAAAAcIYEAwAAAIAzJBgAAAAAnCHBAAAAAOAMCQYy2sis35LWaGm/AwAAAIcammAsZdRShd1Id9Pl3s1M+hXHYDN7ksnKk8XrwP6CptrM+rFjJ2vSmGW888Nw7AKoE85JzixHQQxvOIC7a2B/Jhv7W8jNNXTv1LzqoJEJxnI0FFlszXt5dbfwRObDvszqGOGrsJRfE5Gp/yqkF82mT0gdsy3D42ch3nx49oKQZbwsw3DsAqgTzkku2BoOw7n9fqM2M3lS10DP69kf9lxdQ3dOzKs21EqclGGQ7+dPtyrE257aKnVzkfjZ9fcW9nvDNWKfa6TFVl07D44Tf9pTMfdU32OyjFdw2jU+dq8Bx1I56/XafkIRjdz/GnROqkt8g/N8bzv1/e20J1upWWHkMnEK1l3vNyYevan6JeT6GnpqXu4Vjd9VtcHo3rXtJxi26lT0cdtBIpwY5qB/+Mgz7Gr6KA4ZbP6K/mP/yeOkfddV/87lPeUmiZFlvKLTtjh2AdQJ56Ts2uMPVQL9kPENhyysRv6cFgTH19CT86qRK0gwNjJ7msiqN5Wf1N/Z04lBZyLdyKPf7cKT+bAl/d2z36WMgudxdhhf7l9G6teAflzXMk+Pw2n4MpWJdEgymsn/kpX05L5jv4c69+rXE7KMV2jaHLsA6oRzEgow1ZVW4i2OVCN3eQ09N68aaWiCYev7mbvqnaDx8cdYbjh5TlDxeZmL2gMl1iZ78Grql64mv3ZJRFxbxh/hTqvbXSR3YtX/WU/gTf6QYaAQjl0AdcI5CeUsf6mkNFneqsgl51VWQxMMXRAO76pvxZ+uZahODvs787fOl6+Vyi8eD/fAwaNKEGQtf02oBvJz2lMJR0edWBON2uzjOv3EY1c9Sne33ogLJXHsAqgTzkkoYTmS4fxCb9i85LwcuIo2GO3xb1Hl5BN35m+MTQ6O60pYzS+oO6nfnLGSSUcnEfsqUpoXrWK16267rmVjmUetK/ny7ffQsUezoSzjFZw2xy6AOuGchDyW7/qm69wkpeGN2M5kpXcg6YSJqqNraKZ51chVNfKW3r0cKyPdlPadSiHUbpjSstbsoClxGryqxMGfqt3YNiay01gHjzpwDY5s081f07Rsl3QeyDJe0WmHOHYB1AnnJGRgyk6Jm7C+zlB7U/HV5w99N9bRNTTTvOpELeBJGQa5MP0qr8QruxaeWc46vlbuIvEz669fEWe/K8GrzRKvrrVx2v2mv0cHSEwnmEZ8umaYmr4SDectPIlv05RXMh4MoxQa72CYZh2714BjqRxeU1tO/fe/Zp+T6hffW35N7V7aq2PdXEMPpc3LtaLxOztWHU8QYeE52tVsf96pLn7BO5PD9U/dAe2Jct/FC41asEPvu2QcD2Jd8Y6s6fmgOsltntx3Dk5y1rnxtHPDNOnYvQY6viiOBKOcJux/TT4n1SW+aTEMuuTfb/geelkuycQjpazk4hqadGxeLunlKKKl/1EjH6XreJ0ZBCcQv/yIGeAGx1I5n5+f8vDwYL8hL/a/ahHfbIhTOUXjd11tMAAAAAB8KxIMAAAAAM6QYAAAAABwhgQDAAAAgDMt/ZYM+zlVt6vfzAsAaCJ1jrefgMui/ABchyLXkbNvkeItGuUQv/yIGeAGx1I5xK8c4lct4psNcSqnaPyoIgUAAADAGRIMAAAAAM6QYAAAAABwhgQDAAAAgDMkGAAAAACcIcEAAAAA4AwJBgAAAABnSDAAAAAAOEOCAQAAAMAZEgwAAAAAzpBgAAAAAHCGBAMAAACAMyQYAAAAAJwhwQAAAADgDAkGAAAAAGdIMAAAAAA4Q4IBAAAAwBkSDAAAAADOkGAAAAAAcIYEAwAAAIAzJBgAAAAAnCHBAAAAAOBMa71eb+1nAAAAACiltVXs51Sfn5/y8PBgvyEv4pcfMQPc4Fgqh/iVQ/yqRXyzIU7lFI0fVaQAAAAAOEOCAQAAAMAZEgwAAAAAzpBgAAAAAHCGBAMAAACAMyQYAAAAAJwhwQAAAADgDAkGAAAAAGdIMAAAAAA4Q4IBAAAAwBkSDAAAAADOkGAAAAAAcIYEAwAAAIAzJBgAAAAAnCHBAAAAAOAMCQYAAAAAZ0gwAAAAADhDggEAAADAGRIMAAAAAM6QYAAAAABwhgQDAAAAgDMkGAAAAACcaa3X6639DAAAAACltLaK/Zzq8/NTHh4e7DfkRfzyI2aAGxxL5RC/cohftYhvNsSpnKLxo4oUAAAAAGdIMAAAAAA4Q4IBAAAAwBkSDAAAAADOkGAAAAAAcIYEAwAAAIAzJBgAAAAAnCHBAAAAAOAMCQYAAAAAZ0gwAAAAADhDggEAAADAGRIMAAAAAM6QYAAAAABwhgQDAAAAgDMkGAAAAACcIcEAAAAA4AwJBgAAAABnSDAAAAAAOEOCAQAAAMAZEgwAAAAAzpBgAAAAAHCGBAMAAACAM631er21n1N1u137CQDQNOocbz8BAHAZra1iP6dqtVpyZhAAQA1x/i7n8/NTHh4e7DfkRfyqRXyzIU7lFI0fVaQAAAAAOEOCAQAAAMAZEgwAAAAAzpBgAAAAAHCGBAMAAACAMyQYQG4bmfVb0urP1KfAchT/DgAAcKtIMNBIm1nfvILzoKOQDwAA8K1IMNBgniy2W/Oe/133MZa27Vudtow/LjUvAACAZiHBAAAAAOAMCQaulmkXMVrGq1OFVaiWo5PVqsy4YX/dqelE0eYCAAAgHQkGrtt8KJ2vZ1uFaiHeaiIdnTC8P8Z+e5rtUwWdPLzc+7a/6vyp9NR0EjkGAAAAUpBgoMHmMow+ZWj1JZInBHpT8V8H9stAHj31X8pvq7c/u6cRg9etfIwjrSva/5AfPTW3dzIMAACAc0gw0GDJRt4fEs0LirOvod0lLh2ZrGwvAAAAnESCAcTo5EIlFDIVf5e4+DLt2d4AAAA4iQQDiNr8kbeViPfMK2gBAACKIMEAotp30lX/RdtbLEdUkQIAAMiKBAMNlmzkrbrSr44dyKt9a1Q4zaEsZKEbhwMAAOCs1lZXMj9BF7DODAIAqCHO3+V8fn7Kw8OD/Ya8iF+1iG82xKmcovHjCQYAAAAAZ0gwAAAAADhDggEAAADAGRIMAAAAAM601uv1yRaA3a5+aScAoInUOd5+AgDgMniLVMWIX37EDHCDY6kc3j5TDvGrFvHNhjiVw1ukAAAAAHw7EgwAAAAAzpBgAAAAAHCGBAMAAACAMyQYAAAAAJypRYKxHLWk1Z/Jxn7/XhuZ9ePLU4flq1eMAAAAgHTVJhjLkbRafZnlLBVvZn3zesWD7hoL2C5jNFravkCC2c/0fjKSw71kKSPVr593JwQAAEhR4ypSniy2W/MO9133MZa27Vudtow/LjWvknpT8XfxWYg3H/KUA6k2f8M/tjaXIYkoAACoEG0wrsZAfk57Iqs3+UOGgVSeTPU+Mn/J/cQMAAAgq29JMEx7gpLVesw01LixqkLh3ftddZDIbxGx+esusQy1aXNxZPmOad917aeIaCx0l1yvzUz6kf6xWZ3qpyX6pw6jnIs3Ludu/FumvZVMnjLs3xm2b5nj8Oy+CQAAGuniCYYukAzn++pP/v2L+m575jUfSufreV9FaDWRji6ovD/GfnuK3K7V83+5921/1flT6anp1KnMWzRG+2owAVPoG0qkqpkvU1Ex2hXkljLqTESmYTx8uX8J6+if6qfowqHq312E01bdwlObJF6Xvwnxvi1tGT97Iuq4+HVqG2TcvkaB4/D8vgkAAJrqwgnGUt5VQbk3/SkD+0t7/CGq3JJiLsPo3c20htC6DcJrOKWBPOrppPy2evuzK7QMXrfyMY60rmj/Q37oWiPvdSnx5olRxGYmT5OViPcsweot5Zf67i1ed9PZFy6PVaPS7U+iw0dF+21k9qIW0lvILtTa4NUs52rya5eI1D/eN8hup/kwrcG3ln37GrmPwyL7JgAAaIrLJhibv6LvsXfvsjSfTjby/rAF57Lsa2h3iUtHdLm8NvLEKLxTrLvwaUNYqLPT0Xec9+uqutijkKDdxmrSUf2SCdypfr586VzmMVr6DAxM6XItf3fD1zzeN2rwcyo9lcS/HGTtWp7tW0CmfRMAADTVjTXy1oVdVcCV6NuXfNHtXhsp9hapxJMCy4tWcdl1+2RNPx3Rvy28lUw6uqC3v6t9tJ8tIB7XlSA/urJ4X5P2WH6bBPLp8Mlg5u1bzrl9EwAANNNlE4z2nSqaiKxL3f4sYfNH3kwtohq/gtZVjHJOR1dlMu0jZC7J2ksH/ey006o5LU39rnvp6C9NiPcNa4+fxROVPP56t79YWbdvUd99HgAAAJW68BMMWxc7Uoc7aNBsv1QtpeC0HNWtyo6rGIVVnBJ3qHXj3ehbfqKtrf0vVdzsyb0uPZ7qZ6etG/fGGmurcfRy7hKKRsT7lg3k1TTGmKvUMSrj9i0sw74JAAAa6+JVpAavuorMvgG3fsOQrwszB5KNvFVXuvChClT2LUbhNIeyMA1X6yR7jE7TVZzU6trqTbZ7uRc//COCutGuisCunyo9egtbReVUP8VUn1KBi9WjH65l6m8jDYObEe+bZhtua9F2P9m2b3Fn900AANBYra2u+HyCvvCfGQQnEL/8iBngBsdSOZ+fn/Lw8GC/IS/iVy3imw1xKqdo/G6skTcAAACAKpFgAAAAAHCGBAMAAACAM7TBqBjxy4+YAeX9y3/+m/2Esv7vv/7XfkIe1H2vFvHNhjiVUzR+rfV6fbIk1+3qF40CAJrkn//jX+0nlPU///7f9hMAIAueYFSM+OVHzIDywicY3H0vjhiWw53jahHfbIhTOUXjRxsMAAAAAM6QYAAAAABwhgQDAAAAgDMkGAAAAACcIcEAAAAA4AwJBm7QRmb9lrT6M/UpsBylfB8t7TcU0ewYnt9HAABAumYnGMuReaUpBcECiN0VW8pIb9tIl9zMprCcGCZtuJjNTPop41DoBgAAUQ1NMOzdxeHcfkd2xE6kLeOPrWw/xurTtdHbdyiyUOu3DbqFJzIfpiQPvan4dpiwex3YfjF2n+m8yQ8/PrzuFt2JdFSiUWmuahLivswulslc8z4CAEC1GplgbGZPMln1ZOr7Mu3ZH5EJsbt2QcE4migMfk5Fb+r13yKlc51cdGTSXahk4kPGKaXtwetWfLUzzYeXTAAAAEBdNTLBaI8/jhZ2cNp1xM7eUU9W1WmNZBn2S9xOT21jkaFqz2bW308/bfiwqtmRYcJ2CLsqSbZ/+Hvq9KPTLDBPl0xCKlPxbcayWw/9NGGpq0zpmOv96lk8Wcnbn8MlORvDlKpX0c1n5mmeuK1k0gn6920mUyaO+3Wx3Zl9JqvYsqguXNadM+urlVkvAAC+G4280TDRO+q2io6nf/dksX2V1Bo+Rc2H0vl6tvNZiLeayFOksGgKf6Y2UlhdyFdF8Yl0koU+NZ2h2OWNVrlJmb6uatR6f4z9VmieUf6XKpqLdO8SWWU4P9sdFIRV6vBrshLvOVhmXegdznWc1Xz9H/I2nMiqdy8dM2xH7tOeiJ2JoSksdybSjVTp2qoNqqt0hcujn5Do30T0k7dgmI9ohlwgjnpdXu592191/lR6ajrJgn5eevuo1dktp94+P96e9k92MqzvToH1AgCgDkgw0DC+fKnSsve4TyUGj7rwuZZCNYBO8VRSsKtrNBA9m9XbH1uQt4XvRTSpacv42Qwk8Rv5qlCe1rhBt4FITD/tt2LzDC1lpO/+q+n+jCyCKbSHBVzV6SpOq0knXsjd/FVR7cm9ySCW8q4ms5t3eyx6tipr2SdMaU7GUCWLL2ai8bYfg1eTNK4mv9RcM8gdx2D9Y0lK+x/yQyVI8/cyGcZG/ryt1Kx/R54Q6ipr4RPDnOtbYL0AAKgDEgw0THCnPFoQXOqSr3QleYO+UqbwrW8y758AmC6t8bz3qIqCDuSZp7UcDWWu7/z/Pt1YWVedM4XcaGHVPPmwcV2+m+kEyYa2kb9qYXq7H4LE7+ApyUmHyWKosqRxJ1nNriMqdytn80dUfnEiBt+5vgAAXA4JBpppPtwVDoNqO46rR2XkRau67Lpq27hknWdQpUlXK8qxPKsvVQwObIIMwlaB0qJJXCKhiD3tyMgmTMdVlTTaana6bckufhd46cG3rS8AAJdFgoFmMXeJ93Xxgy5eZeiuaz9WqX2nioNF38xUUI55BsmFTkayJhfBE4l4QpEU3mHXf2dDPxkJqQL700RW3nO+xMquT1q1JPNU6uSylGCfNIRtS5w5t32+a30BALgwEgw0iymk7d8mtOsijZw7pg7Vy65hbVjYdmsgP027hUgDXk034q3szT7Z5qkbGgfJxZG/a6HfYpRYxuD1xfFCd1tnauETjcFPmfbCuL/IvUrwglfT6u+20X3qzE4J1kc/jYo1rlbrY5Y/mgB07kWtuXyFj1fKSCnoL0f5q0jp/Sr+tznSto9+WhIOk2N9AQBosEYmGPtXN9pCwa66TPDKTBzX/NgFbTDi1YTib1Jqj39HCsPB24J0Ydg13W7Bn0o82Xm5F7/CP852fp5BQ3DtoK1GWBjWDZp1vCL9OpOueTtUvPHxo3gyl5dgpOAPz5l4B09Fglce299yJxcBMw37FqXdcg7X5glVbJK2UXk4XLm3PQ3k1b41KpynfsuXboNS1uH26cjbj32j78zrCwBAg7VU4WBrP6fSF8Azg+AE4pffqZgFrwHVheF4m4tjv6Mk/bSjo19HO600cYJ7//Kf/2b+/7//+l/zP/IjhuV8fn7Kw8OD/QbXiG82xKmcovGjihQaaC7xauz2rr2rtzVhrz2WD5XsLbrxJx67rrLqYAAAoKlIMNAoQRWUsO5/2A1lPfULV9PBecm/m7HreKqBK6afXPD0AgDyI8FA48Tq/tsu9kfTAKAEXTUq2QEAsiPBAAAAAOBMa71en2yB3O3qFzoCAJrkn//jX+0n5KGrRKU9sfiff/9v+wkAcA5vkaoY8cuPmAHlUa2nmGMJBm0x8uPtPdUivtkQp3KKxo8Eo2LELz9iBrjBsVQMCYYbFOyqRXyzIU7lFI0fbTAAAIjQyYTudLWo8DMAIDsSDAAAAADOkGAAAAAAcIYEAwAAAIAzJBjAgY3M+i1p9WfqE+rncPssR2wvAADqoqEJxlJGLVWgiHSjpe2FM4hdIyxHwfZJ3ThZtmGB7byZST8xjukouAMAgBwamGDou5dDkcXWvH5RdwtPZD6koJzFcpQWu77MKEFGtGX8oeLzMVafLs3enR/O7fekbPt/vu1s59l5kx/+fpzduN2JdFSiUZ/j6zu3DwAAOKeBCUZQuHgd2K/K4OdUeur/9V9KyecMXtNit5K3P8SuDjazJ5msejL1fZnqnfpAtv0/+3bWyUVHJt2FSiY+ZJxSYtfT8tXCkIgCAIAsaIMBo3vHveCo1Dr9KVWIDu7qJ4Y56B9WfQq7xDza44+jBX0XktvZJDQyFd9mI2a9zbKpZGKp12UkehXa42fxDhIU++Qjuj6mC8Yx01IB2Mz6+37h+kbjkFIFa78ctksEsmibi9iyqK6fzJgybOMy6wUAwC24jgTD/1JFHwrJ+akC4tNEVr2p/Izc7UYKXXDsTKQbqXa0XXimatK+kLqUkRpGpr4dxpf7l6CwrZkCqam5FE7DV0X7iXTKFkTP7v/HtvNSfk1W4j0HVY10wXk494Ll83/I21CPcy8dM2xH7mNPVKJPPoL10dWwRKUhi+2r7GYzH0rn69kOsxBvFVS3ar0/xn57ihT09XK83Icx1MsylZ6azkGylpOOf7B57HRV/H+8Pe2fymTaxlaB9QIA4Gaoi+FJGQb5ZoutKtdspTfd+vaXOqlf/PzttKfipWNmOk9FsF7qEDNVrozsUzZm3mGkzHC7GAb7Yk+VYA8F/Q4msfDU+L3t4SjH5xl3bP/PsJ396ba3m/fh8pl12/0QTG+/binrk1iXeAwDWX+LO4xFcpys00jfNtrxeJtpR+KXdR3OL1P16nAsNdl6vbafUATxqxbxzYY4lVM0fo1/gqEbs86lJ9PfNPjMxjaQNXdZdd36tQxbKXdoEeHL10oVMR8PH/MMHlUxW9YSNH8YyE9VSl1NOmKqGEVDuvmrhgoaY++q0OjuaGPubI7v/xm2s3ny0RXz4GP5bqZzHzyuUDbyVy1wb/dDEIP9U5Lgicb8ff9YYfmu18VOr5Rk1auOTPQjmjI2f+QttvxJWbcxAAA4p9EJRlClQzeIra7O+rVrj3+bxsSrya9dVR4k2OTguH2hOmhDoasLrWTS0YXjfRUpzYtWv9l1xfbfPPt/2nbeBBmErQKlRZODREJhYhBNQKz5cJcIBNWrItWjCrFVr3S7kF18jjV4dyjHNgYAAKc1NsEICle6wEZy4USsoImY9p0qXsbv1ofMXfuU2Ok3L5m2AzIXM5qdhqs3nRXe/09u5/Auvf4bGvrJSMi24fCe9/MyTwR0chMmAborm1wo9klD2C7EmXPxL7CNAQBAukYmGLqxZlC4ir+KE+fogmP8jrosf5nqJ70f/6CK2VFB1Sd9tz7W0Hg5CvbDsDCsGwlHBzBVkMK7/mH1qUijYk2Pk7OR9/n9P9t2bt+pIvXqS3z9ZfBTpr3wqcuL3KvEIXg1ra2ipBtzR2dmCuTh8JGubIP1lIL+cpS/ipROwOLV1NLir5+WhMNk3MYAAOCsBiYYwZtvtIP67Ml670jQhaigLv4uZqr0pAuqHzwGOslUfVoEbxTax25t7uDvyt2DV1nIvspQENv9EwY9DX8q8UL5y734kT8Yt3/1qS1U76oghQlDlv0/43YePIpaI3kxI0XbbATLHFb3Mt1BJhO0wYhX+XLxVqyBvNq3RoXLPlRRVaEv7TD+HXn78Tu2fc5uYwAAcFZLFQz0m0aO0hfZM4PgBOKXXx1iZqograexwv9V0n/3oRO8wjbPugavfO0etLk49ju+B+efcj4/P+Xh4cF+Q17Er1rENxviVE7R+DX+LVKAe8EblKR7d/3VYtpj+VAF0EXX/h2HZHfyaYRtX7Jjn654jyQXAADcMBIMICKooqSrJ3myuKF6MaZRuko0DrojTzWC6kZhG42wG8pa/5FB6hMBAHDTSDCAiH27A6r4nBNro2E72vIAAAASDAAAAADOtPSfALefU3W7+qWRAIAmUud4+wkAgMvgLVIVI375ETPADY6lcnj7TDnEr1rENxviVA5vkQIAAADw7UgwAAAAADhDggEAAADAGRIMAAAAAM6QYAAAAABwhgQDN2Yjs35LWv2Z+oRjliMVo9HSfmuaw21s1odtDgDARTQ0wVjKqKUKDJGusWWhiyN23ydL7HNsn+UoGCbLBtzMpJ+YrukodAMAAMcamWAsR0ORxda83113C09kPuzLjJLSWcSuLeMPte4fY/Xpss7HXt95TxsmmWTYO/TDuf1+ih228yY//P10d9PvTqSjEo1Kk0yTCF1yH/u+bQwAABqaYAxet/I6sF+Uwc+p9GQlb3/IMM4hdt/nfOyDgvHhMCLrv/vts5k9yWTVk6nvy1T3PEonFx2ZdBcqmfiQcUppWy+TryZCgg4AAFy5qjYY3TvuVxZ1S7FLrY+fUoXo4K5+YpiD/mGVpbDLWP0ob+zb44+jCUOUSURkKr7NWMx6m2VTycRSr8tI9Cq0x8/iHUkyN7P+6fU5EzczT/OkZSWTTtC/bzOZsJ1H6jyisUyZ735dbJfYGKnbOIPYsqguXNadDPtJmfUCAOAaXEGCsZHZ00RWvan8jNz5RRbEztCFvs5EupGqSduFZ6om7QuYSxmpYWTq22F8uX8JCuiaKUya2k3hNHxVtJ9I52ghMmPs/S9VNC+SAC7l12Ql3nNQTUgXeodzL1g+/4e8DfW876Vjhu3IfdqTkPlQOl/Pdn0W4q0m8hQtcGeIm35Con8T0U9cgmE+oplRyjx0la3W+2Pst+h89bq83IfbQXX+VHpqOsmCfl56Gwab2E5XbcMfb0/7JzuZ9hOrwHoBAHA11MXupAyDfAN/O+2JWbag87aq4FRL9Ytf/WNXdcxUmXArvamKhGbj4R1GwQy3i89iq4rJ254qfR4K+h1MYuGp8Xvb/Sh5Yx9Md7+sSceXXRW6t73dvA+Xz6zb7odgOtF1i/cPFIubchCHQHx6gay/xR0uS3KcrNNI375a9vXNug7nl6m8qo+la7der+0nFEH8qkV8syFO5RSNX0OfYNhGnOZOoK5DvpZhK+UuIlIQuzhfvlaqePh4+Bhh8KjvvK8laP4wkJ+qhLmadOSgwfLmrxoqaIy9q/6iu4NG2PlirxuFz/Wd/98FGiubJx9dMQ8+lu9mOvfB4wplI3/VAvd2PwQxyPeUJGvcqmAbru9i3ZGJfsxTxuaPvJ2MwXeuLwAAzXIVbTDa49+msetq8mtXZQXZ3HzsbHJwnC2kK0HbB/1mp7A9wb6KlOZFq87suuNtJU7FPqjSpKsVnW9rkWYTZBC2CpS2X4+DhMLEIJqAZJAjbm7Zhuu6bckuxucauzvwbesLAEDzXFUj73iBCrncauzad6poKDJ/P0yvlu/z1LiYdgW63r/MxYxmpxF901MuiXkEyYVOWIolF+nCO+z672zoJyMh2xbEe843rwJxc8I+aQjbljhzbht+1/oCANBADUwwdAEpfudYlr9MFYnej3+4LXRcHWJ3KKj6pBvlxhoJL0dBIT8syOoGvtEBTBWk8K5/WH0q0iBY0+PsGnlni71uaBwkF/HX1ebVvlPF4dWX+PrL4KdMe+FTlxe598NX09rqRfo1trlnljFuWudeRWolX2ZhSkop6C9H+atImTc9xaq6pW1D/bQkHCbH+gIAcOMamGDoC31Qdz1a110XyGJvp0EKYpfGVH1aBG8D2sdlbd4mtCt3D15lIcNE3PZPGPQ0/KnsXsVqupd78Xd/7C1L7IM3P2kH7TkiheH9609twVoVeoPvkQRm8ChqjeTFjBRt+xEsc1jdy3QFM5lMcdPaY3n29utU7m1PA3m1b40K5zlUW0YtRmmH27Ajbz9+x7ZxpvUFAODGtVQBQ79p5Ch9ET0zCE4gfvlVHTNTBWk9jRT+r5T+mw2d4FW4V7+uSMX5p5zPz095eHiw35AX8asW8c2GOJVTNH7X1QYDOCt4g5J0766/wN0ey4cqXC669m8wJDv+0BsAAKgACQZuRlC1SFcr8mRxQ3VaTKN0lWgcdDzVAAAAFSDBwM3Ytzt4FarMAwAAVIMEAwAAAIAzLf0nwO3nVN2ufikkAKCJ1DnefgIA4DLOvkWK1vflEL/8iBngBsdSOcSvHOJXLeKbDXEqp2j8qCIFAAAAwBkSDAAAAADOkGAAAAAAcIYEAwAAAIAzJBgAAAAAHBH5f9tcAiW755IzAAAAAElFTkSuQmCC;" vertex="1" parent="1">
          <mxGeometry x="500" y="674.5" width="674.97" height="285.5" as="geometry" />
        </mxCell>
      </root>
    </mxGraphModel>
  </diagram>
</mxfile>
